<svg xmlns="http://www.w3.org/2000/svg" xmlns:xlink="http://www.w3.org/1999/xlink" width="1920" height="710" viewBox="0 0 1920 710">
  <defs>
    <linearGradient id="linear-gradient" x1="0.5" x2="0.5" y2="1" gradientUnits="objectBoundingBox">
      <stop offset="0"/>
      <stop offset="1" stop-color="#ce2a00" stop-opacity="0.6"/>
    </linearGradient>
    <linearGradient id="linear-gradient-2" x1="0.5" x2="0.52" y2="0.83" gradientUnits="objectBoundingBox">
      <stop offset="0" stop-color="red"/>
      <stop offset="1"/>
    </linearGradient>
    <clipPath id="clip-path">
      <rect width="1920" height="638" fill="none"/>
    </clipPath>
    <filter id="Pfad_2" x="119.394" y="60.818" width="1699.218" height="486.182" filterUnits="userSpaceOnUse">
      <feOffset dy="3" input="SourceAlpha"/>
      <feGaussianBlur stdDeviation="3" result="blur"/>
      <feFlood flood-color="#1ace14" flood-opacity="0.569"/>
      <feComposite operator="in" in2="blur"/>
      <feComposite in="SourceGraphic"/>
    </filter>
    <filter id="Ellipse_2" x="680.793" y="387.109" width="110.415" height="117.782" filterUnits="userSpaceOnUse">
      <feOffset dy="3" input="SourceAlpha"/>
      <feGaussianBlur stdDeviation="3" result="blur-2"/>
      <feFlood flood-color="#1ace14" flood-opacity="0.569"/>
      <feComposite operator="in" in2="blur-2"/>
      <feComposite in="SourceGraphic"/>
    </filter>
    <filter id="Ellipse_3" x="727.729" y="429.839" width="109.542" height="132.322" filterUnits="userSpaceOnUse">
      <feOffset dy="3" input="SourceAlpha"/>
      <feGaussianBlur stdDeviation="3" result="blur-3"/>
      <feFlood flood-color="#1ace14" flood-opacity="0.569"/>
      <feComposite operator="in" in2="blur-3"/>
      <feComposite in="SourceGraphic"/>
    </filter>
    <filter id="Ellipse_4" x="746.391" y="328.901" width="71.218" height="134.199" filterUnits="userSpaceOnUse">
      <feOffset dy="3" input="SourceAlpha"/>
      <feGaussianBlur stdDeviation="3" result="blur-4"/>
      <feFlood flood-color="#1ace14" flood-opacity="0.569"/>
      <feComposite operator="in" in2="blur-4"/>
      <feComposite in="SourceGraphic"/>
    </filter>
    <filter id="Ellipse_5" x="779.749" y="270.239" width="96.502" height="134.522" filterUnits="userSpaceOnUse">
      <feOffset dy="3" input="SourceAlpha"/>
      <feGaussianBlur stdDeviation="3" result="blur-5"/>
      <feFlood flood-color="#1ace14" flood-opacity="0.569"/>
      <feComposite operator="in" in2="blur-5"/>
      <feComposite in="SourceGraphic"/>
    </filter>
    <filter id="Ellipse_6" x="689.443" y="261.021" width="101.115" height="132.959" filterUnits="userSpaceOnUse">
      <feOffset dy="3" input="SourceAlpha"/>
      <feGaussianBlur stdDeviation="3" result="blur-6"/>
      <feFlood flood-color="#1ace14" flood-opacity="0.569"/>
      <feComposite operator="in" in2="blur-6"/>
      <feComposite in="SourceGraphic"/>
    </filter>
    <filter id="Ellipse_7" x="806.811" y="240.548" width="43.378" height="75.905" filterUnits="userSpaceOnUse">
      <feOffset dy="3" input="SourceAlpha"/>
      <feGaussianBlur stdDeviation="3" result="blur-7"/>
      <feFlood flood-color="#1ace14" flood-opacity="0.569"/>
      <feComposite operator="in" in2="blur-7"/>
      <feComposite in="SourceGraphic"/>
    </filter>
  </defs>
  <g id="bg-3-alternative" transform="translate(0 -47)">
    <rect id="Rechteck_1" data-name="Rechteck 1" width="1920" height="514" transform="translate(0 94)" fill="url(#linear-gradient)"/>
    <ellipse id="Ellipse_1" data-name="Ellipse 1" cx="214.5" cy="207.5" rx="214.5" ry="207.5" transform="translate(884 210)" fill="url(#linear-gradient-2)"/>
    <g id="Wiederholungsraster_1" data-name="Wiederholungsraster 1" transform="translate(0 47)" clip-path="url(#clip-path)">
      <g transform="translate(0 -47)">
        <rect id="Rechteck_2" data-name="Rechteck 2" width="1920" height="6" transform="translate(0 47)"/>
      </g>
      <g transform="translate(0 -29)">
        <rect id="Rechteck_2-2" data-name="Rechteck 2" width="1920" height="6" transform="translate(0 47)"/>
      </g>
      <g transform="translate(0 -11)">
        <rect id="Rechteck_2-3" data-name="Rechteck 2" width="1920" height="6" transform="translate(0 47)"/>
      </g>
      <g transform="translate(0 7)">
        <rect id="Rechteck_2-4" data-name="Rechteck 2" width="1920" height="6" transform="translate(0 47)"/>
      </g>
      <g transform="translate(0 25)">
        <rect id="Rechteck_2-5" data-name="Rechteck 2" width="1920" height="6" transform="translate(0 47)"/>
      </g>
      <g transform="translate(0 43)">
        <rect id="Rechteck_2-6" data-name="Rechteck 2" width="1920" height="6" transform="translate(0 47)"/>
      </g>
      <g transform="translate(0 61)">
        <rect id="Rechteck_2-7" data-name="Rechteck 2" width="1920" height="6" transform="translate(0 47)"/>
      </g>
      <g transform="translate(0 79)">
        <rect id="Rechteck_2-8" data-name="Rechteck 2" width="1920" height="6" transform="translate(0 47)"/>
      </g>
      <g transform="translate(0 97)">
        <rect id="Rechteck_2-9" data-name="Rechteck 2" width="1920" height="6" transform="translate(0 47)"/>
      </g>
      <g transform="translate(0 115)">
        <rect id="Rechteck_2-10" data-name="Rechteck 2" width="1920" height="6" transform="translate(0 47)"/>
      </g>
      <g transform="translate(0 133)">
        <rect id="Rechteck_2-11" data-name="Rechteck 2" width="1920" height="6" transform="translate(0 47)"/>
      </g>
      <g transform="translate(0 151)">
        <rect id="Rechteck_2-12" data-name="Rechteck 2" width="1920" height="6" transform="translate(0 47)"/>
      </g>
      <g transform="translate(0 169)">
        <rect id="Rechteck_2-13" data-name="Rechteck 2" width="1920" height="6" transform="translate(0 47)"/>
      </g>
      <g transform="translate(0 187)">
        <rect id="Rechteck_2-14" data-name="Rechteck 2" width="1920" height="6" transform="translate(0 47)"/>
      </g>
      <g transform="translate(0 205)">
        <rect id="Rechteck_2-15" data-name="Rechteck 2" width="1920" height="6" transform="translate(0 47)"/>
      </g>
      <g transform="translate(0 223)">
        <rect id="Rechteck_2-16" data-name="Rechteck 2" width="1920" height="6" transform="translate(0 47)"/>
      </g>
      <g transform="translate(0 241)">
        <rect id="Rechteck_2-17" data-name="Rechteck 2" width="1920" height="6" transform="translate(0 47)"/>
      </g>
      <g transform="translate(0 259)">
        <rect id="Rechteck_2-18" data-name="Rechteck 2" width="1920" height="6" transform="translate(0 47)"/>
      </g>
      <g transform="translate(0 277)">
        <rect id="Rechteck_2-19" data-name="Rechteck 2" width="1920" height="6" transform="translate(0 47)"/>
      </g>
      <g transform="translate(0 295)">
        <rect id="Rechteck_2-20" data-name="Rechteck 2" width="1920" height="6" transform="translate(0 47)"/>
      </g>
      <g transform="translate(0 313)">
        <rect id="Rechteck_2-21" data-name="Rechteck 2" width="1920" height="6" transform="translate(0 47)"/>
      </g>
      <g transform="translate(0 331)">
        <rect id="Rechteck_2-22" data-name="Rechteck 2" width="1920" height="6" transform="translate(0 47)"/>
      </g>
      <g transform="translate(0 349)">
        <rect id="Rechteck_2-23" data-name="Rechteck 2" width="1920" height="6" transform="translate(0 47)"/>
      </g>
      <g transform="translate(0 367)">
        <rect id="Rechteck_2-24" data-name="Rechteck 2" width="1920" height="6" transform="translate(0 47)"/>
      </g>
      <g transform="translate(0 385)">
        <rect id="Rechteck_2-25" data-name="Rechteck 2" width="1920" height="6" transform="translate(0 47)"/>
      </g>
      <g transform="translate(0 403)">
        <rect id="Rechteck_2-26" data-name="Rechteck 2" width="1920" height="6" transform="translate(0 47)"/>
      </g>
      <g transform="translate(0 421)">
        <rect id="Rechteck_2-27" data-name="Rechteck 2" width="1920" height="6" transform="translate(0 47)"/>
      </g>
      <g transform="translate(0 439)">
        <rect id="Rechteck_2-28" data-name="Rechteck 2" width="1920" height="6" transform="translate(0 47)"/>
      </g>
      <g transform="translate(0 457)">
        <rect id="Rechteck_2-29" data-name="Rechteck 2" width="1920" height="6" transform="translate(0 47)"/>
      </g>
      <g transform="translate(0 475)">
        <rect id="Rechteck_2-30" data-name="Rechteck 2" width="1920" height="6" transform="translate(0 47)"/>
      </g>
      <g transform="translate(0 493)">
        <rect id="Rechteck_2-31" data-name="Rechteck 2" width="1920" height="6" transform="translate(0 47)"/>
      </g>
      <g transform="translate(0 511)">
        <rect id="Rechteck_2-32" data-name="Rechteck 2" width="1920" height="6" transform="translate(0 47)"/>
      </g>
      <g transform="translate(0 529)">
        <rect id="Rechteck_2-33" data-name="Rechteck 2" width="1920" height="6" transform="translate(0 47)"/>
      </g>
      <g transform="translate(0 547)">
        <rect id="Rechteck_2-34" data-name="Rechteck 2" width="1920" height="6" transform="translate(0 47)"/>
      </g>
      <g transform="translate(0 565)">
        <rect id="Rechteck_2-35" data-name="Rechteck 2" width="1920" height="6" transform="translate(0 47)"/>
      </g>
      <g transform="translate(0 583)">
        <rect id="Rechteck_2-36" data-name="Rechteck 2" width="1920" height="6" transform="translate(0 47)"/>
      </g>
    </g>
    <g transform="matrix(1, 0, 0, 1, 0, 47)" filter="url(#Pfad_2)">
      <path id="Pfad_2-2" data-name="Pfad 2" d="M400.132,582,367.18,524.879h21.183l-35.306-61.2h23.537l-47.074-68.258H367.18l-56.489-68.258h42.367l-42.367-47.074h42.367s-37.983-49.573-168.765-20.118c-1.7.382,3.6-8.623,27.5-32.522s113.726-7.417,113.726-7.417-60.983-41.205-118.671-47.8-77.466,13.186-77.466,13.186-12.362-41.205,50.27-43.677,140.1,30.492,140.1,30.492,14.834-10.713,0-30.492-46.15-20.6-46.15-20.6,63.456-16.482,72.521,0S376.595,164,376.595,164s18.15-29.668,58.531-35.436S550.5,147.514,550.5,147.514s-68.4,29.668-110.43,34.612-58.511,14.834-58.511,14.834,149.987-4.121,168.941,7.417-25.547,21.427-32.964,23.075-129.173,16.482-129.173,16.482,145.655-11.6,176.97,16.04,28.844,57.3,28.844,57.3-37.909-27.2-76.641-31.316c-22.891-2.435-56.72-4.043-80.773-4.958-16.29-.62-28.008-.913-28.008-.913l26.371,9.991-26.371,37.083h28.008l-28.008,68.258H440.07l-31.316,68.258h28.008l-23.063,61.2h23.063L413.7,582H550.5l-15.658-19.138H550.5L534.842,546.38H550.5l-20.6-18.13h14.01l-20.6-21.427h11.537l-17.306-19.778h17.306l-17.306-17.306h17.306s-3.3-18.954-46.15-12.362-25.547,12.362-25.547,12.362-16.482-8.241,0-18.954,60.159-14.01,60.159-14.01-32.14-25.547-51.918-22.251-14.834,5.769-14.834,5.769-4.121-16.482,18.954-17.306,60.159,11.537,59.335,17.306,14.01-23.075,0-30.492,14.834-4.945,15.658,13.186,0,28.019,0,28.019l18.13-21.427s6.593,19.778,0,27.2-13.186,14.01-13.186,14.01,28.019-9.889,38.733,0,8.241,6.593,8.241,6.593-42.853,10.139-46.974,6.306-11.537,6.056-11.537,6.056h11.537L550.5,487.044h8.241L550.5,506.823h14.834l-9.889,21.427H568.63l-3.3,18.13h9.889l-9.889,16.482h14.01L568.63,582H1594.144l-40.711-58.118h32.14l-47.139-54.144h36.425l-58.923-60.159h49.281l-64.28-56.039h52.5s-6.428-16.977-30-36.261-138.2,16.977-146.773,36.261-4.285,16.07-4.285,16.07-30-61.066,4.285-76.065,87.849-36.073,124.275-33.571,26.783,4.645,26.783,4.645S1401.3,190.7,1363.807,196.054s-68.565,39.639-68.565,39.639,33.211-84.635,56.781-81.421,145.7,17.718,171.413,50.105,15,13.1,15,13.1l15,18.213s12.856-45,0-61.066-5.357-6.428-5.357-6.428,27.854,37.5,46.067,18.213,17.141-11.785,17.141-11.785-30,34.283-11.785,61.066,11.785,16.07,11.785,16.07-17.141-37.5,49.281-55.709S1782.7,217.481,1782.7,217.481s-97.491-2.143-129.631,27.855-41.782,40.628-41.782,40.628,136.059-40.628,171.413-9.559,25.712,24.641,25.712,24.641-131.774-2.143-173.556,4.285-19.284,5.357-19.284,5.357,43.925,39.639,100.705,31.069,39.639-6.428,39.639-6.428-62.137,58.923-109.276,27.855-47.139-27.855-47.139-27.855l-18.213,18.213h34.283l-30,56.039h40.711L1599.5,469.738h35.354l-30,54.144h30L1615.571,582Z" transform="translate(0 -47)"/>
    </g>
    <g transform="matrix(1, 0, 0, 1, 0, 47)" filter="url(#Ellipse_2)">
      <ellipse id="Ellipse_2-2" data-name="Ellipse 2" cx="27" cy="42" rx="27" ry="42" transform="matrix(0.82, -0.57, 0.57, 0.82, 689.79, 424.08)"/>
    </g>
    <g transform="matrix(1, 0, 0, 1, 0, 47)" filter="url(#Ellipse_3)">
      <ellipse id="Ellipse_3-2" data-name="Ellipse 3" cx="28.5" cy="50" rx="28.5" ry="50" transform="matrix(0.92, 0.39, -0.39, 0.92, 775.8, 435.84)"/>
    </g>
    <g transform="matrix(1, 0, 0, 1, 0, 47)" filter="url(#Ellipse_4)">
      <ellipse id="Ellipse_4-2" data-name="Ellipse 4" cx="56" cy="19" rx="56" ry="19" transform="translate(770.98 451.1) rotate(-98)" fill="#040404"/>
    </g>
    <g transform="matrix(1, 0, 0, 1, 0, 47)" filter="url(#Ellipse_5)">
      <ellipse id="Ellipse_5-2" data-name="Ellipse 5" cx="58" cy="14.5" rx="58" ry="14.5" transform="matrix(0.45, -0.89, 0.89, 0.45, 788.75, 379.6)"/>
    </g>
    <g transform="matrix(1, 0, 0, 1, 0, 47)" filter="url(#Ellipse_6)">
      <ellipse id="Ellipse_6-2" data-name="Ellipse 6" cx="58" cy="14.5" rx="58" ry="14.5" transform="translate(756.44 381.98) rotate(-120)"/>
    </g>
    <g transform="matrix(1, 0, 0, 1, 0, 47)" filter="url(#Ellipse_7)">
      <ellipse id="Ellipse_7-2" data-name="Ellipse 7" cx="28.5" cy="5.5" rx="28.5" ry="5.5" transform="matrix(-0.26, -0.97, 0.97, -0.26, 830.56, 304.45)"/>
    </g>
    <rect id="Rechteck_3" data-name="Rechteck 3" width="1920" height="175" transform="translate(0 582)"/>
  </g>
</svg>
