<svg xmlns="http://www.w3.org/2000/svg" xmlns:xlink="http://www.w3.org/1999/xlink" width="1941.01" height="752.945" viewBox="0 0 1941.01 752.945">
  <defs>
    <linearGradient id="linear-gradient" x1="0.5" x2="0.5" y2="1" gradientUnits="objectBoundingBox">
      <stop offset="0"/>
      <stop offset="1" stop-color="#ce2a00" stop-opacity="0.6"/>
    </linearGradient>
    <linearGradient id="linear-gradient-2" x1="0.5" x2="0.52" y2="0.83" gradientUnits="objectBoundingBox">
      <stop offset="0" stop-color="red"/>
      <stop offset="1"/>
    </linearGradient>
    <clipPath id="clip-path">
      <rect width="1920" height="638" fill="none"/>
    </clipPath>
    <filter id="Pfad_1" x="0" y="0" width="1941.01" height="590.298" filterUnits="userSpaceOnUse">
      <feOffset dy="3" input="SourceAlpha"/>
      <feGaussianBlur stdDeviation="3" result="blur"/>
      <feFlood flood-color="red" flood-opacity="0.8"/>
      <feComposite operator="in" in2="blur"/>
      <feComposite in="SourceGraphic"/>
    </filter>
  </defs>
  <g id="bg2" transform="translate(9 -4.055)">
    <rect id="Rechteck_1" data-name="Rechteck 1" width="1920" height="514" transform="translate(0 94)" fill="url(#linear-gradient)"/>
    <ellipse id="Ellipse_1" data-name="Ellipse 1" cx="214.5" cy="207.5" rx="214.5" ry="207.5" transform="translate(884 210)" fill="url(#linear-gradient-2)"/>
    <g id="Wiederholungsraster_1" data-name="Wiederholungsraster 1" transform="translate(0 47)" clip-path="url(#clip-path)">
      <g transform="translate(0 -47)">
        <rect id="Rechteck_2" data-name="Rechteck 2" width="1920" height="6" transform="translate(0 47)"/>
      </g>
      <g transform="translate(0 -29)">
        <rect id="Rechteck_2-2" data-name="Rechteck 2" width="1920" height="6" transform="translate(0 47)"/>
      </g>
      <g transform="translate(0 -11)">
        <rect id="Rechteck_2-3" data-name="Rechteck 2" width="1920" height="6" transform="translate(0 47)"/>
      </g>
      <g transform="translate(0 7)">
        <rect id="Rechteck_2-4" data-name="Rechteck 2" width="1920" height="6" transform="translate(0 47)"/>
      </g>
      <g transform="translate(0 25)">
        <rect id="Rechteck_2-5" data-name="Rechteck 2" width="1920" height="6" transform="translate(0 47)"/>
      </g>
      <g transform="translate(0 43)">
        <rect id="Rechteck_2-6" data-name="Rechteck 2" width="1920" height="6" transform="translate(0 47)"/>
      </g>
      <g transform="translate(0 61)">
        <rect id="Rechteck_2-7" data-name="Rechteck 2" width="1920" height="6" transform="translate(0 47)"/>
      </g>
      <g transform="translate(0 79)">
        <rect id="Rechteck_2-8" data-name="Rechteck 2" width="1920" height="6" transform="translate(0 47)"/>
      </g>
      <g transform="translate(0 97)">
        <rect id="Rechteck_2-9" data-name="Rechteck 2" width="1920" height="6" transform="translate(0 47)"/>
      </g>
      <g transform="translate(0 115)">
        <rect id="Rechteck_2-10" data-name="Rechteck 2" width="1920" height="6" transform="translate(0 47)"/>
      </g>
      <g transform="translate(0 133)">
        <rect id="Rechteck_2-11" data-name="Rechteck 2" width="1920" height="6" transform="translate(0 47)"/>
      </g>
      <g transform="translate(0 151)">
        <rect id="Rechteck_2-12" data-name="Rechteck 2" width="1920" height="6" transform="translate(0 47)"/>
      </g>
      <g transform="translate(0 169)">
        <rect id="Rechteck_2-13" data-name="Rechteck 2" width="1920" height="6" transform="translate(0 47)"/>
      </g>
      <g transform="translate(0 187)">
        <rect id="Rechteck_2-14" data-name="Rechteck 2" width="1920" height="6" transform="translate(0 47)"/>
      </g>
      <g transform="translate(0 205)">
        <rect id="Rechteck_2-15" data-name="Rechteck 2" width="1920" height="6" transform="translate(0 47)"/>
      </g>
      <g transform="translate(0 223)">
        <rect id="Rechteck_2-16" data-name="Rechteck 2" width="1920" height="6" transform="translate(0 47)"/>
      </g>
      <g transform="translate(0 241)">
        <rect id="Rechteck_2-17" data-name="Rechteck 2" width="1920" height="6" transform="translate(0 47)"/>
      </g>
      <g transform="translate(0 259)">
        <rect id="Rechteck_2-18" data-name="Rechteck 2" width="1920" height="6" transform="translate(0 47)"/>
      </g>
      <g transform="translate(0 277)">
        <rect id="Rechteck_2-19" data-name="Rechteck 2" width="1920" height="6" transform="translate(0 47)"/>
      </g>
      <g transform="translate(0 295)">
        <rect id="Rechteck_2-20" data-name="Rechteck 2" width="1920" height="6" transform="translate(0 47)"/>
      </g>
      <g transform="translate(0 313)">
        <rect id="Rechteck_2-21" data-name="Rechteck 2" width="1920" height="6" transform="translate(0 47)"/>
      </g>
      <g transform="translate(0 331)">
        <rect id="Rechteck_2-22" data-name="Rechteck 2" width="1920" height="6" transform="translate(0 47)"/>
      </g>
      <g transform="translate(0 349)">
        <rect id="Rechteck_2-23" data-name="Rechteck 2" width="1920" height="6" transform="translate(0 47)"/>
      </g>
      <g transform="translate(0 367)">
        <rect id="Rechteck_2-24" data-name="Rechteck 2" width="1920" height="6" transform="translate(0 47)"/>
      </g>
      <g transform="translate(0 385)">
        <rect id="Rechteck_2-25" data-name="Rechteck 2" width="1920" height="6" transform="translate(0 47)"/>
      </g>
      <g transform="translate(0 403)">
        <rect id="Rechteck_2-26" data-name="Rechteck 2" width="1920" height="6" transform="translate(0 47)"/>
      </g>
      <g transform="translate(0 421)">
        <rect id="Rechteck_2-27" data-name="Rechteck 2" width="1920" height="6" transform="translate(0 47)"/>
      </g>
      <g transform="translate(0 439)">
        <rect id="Rechteck_2-28" data-name="Rechteck 2" width="1920" height="6" transform="translate(0 47)"/>
      </g>
      <g transform="translate(0 457)">
        <rect id="Rechteck_2-29" data-name="Rechteck 2" width="1920" height="6" transform="translate(0 47)"/>
      </g>
      <g transform="translate(0 475)">
        <rect id="Rechteck_2-30" data-name="Rechteck 2" width="1920" height="6" transform="translate(0 47)"/>
      </g>
      <g transform="translate(0 493)">
        <rect id="Rechteck_2-31" data-name="Rechteck 2" width="1920" height="6" transform="translate(0 47)"/>
      </g>
      <g transform="translate(0 511)">
        <rect id="Rechteck_2-32" data-name="Rechteck 2" width="1920" height="6" transform="translate(0 47)"/>
      </g>
      <g transform="translate(0 529)">
        <rect id="Rechteck_2-33" data-name="Rechteck 2" width="1920" height="6" transform="translate(0 47)"/>
      </g>
      <g transform="translate(0 547)">
        <rect id="Rechteck_2-34" data-name="Rechteck 2" width="1920" height="6" transform="translate(0 47)"/>
      </g>
      <g transform="translate(0 565)">
        <rect id="Rechteck_2-35" data-name="Rechteck 2" width="1920" height="6" transform="translate(0 47)"/>
      </g>
      <g transform="translate(0 583)">
        <rect id="Rechteck_2-36" data-name="Rechteck 2" width="1920" height="6" transform="translate(0 47)"/>
      </g>
    </g>
    <g transform="matrix(1, 0, 0, 1, -9, 4.05)" filter="url(#Pfad_1)">
      <path id="Pfad_1-2" data-name="Pfad 1" d="M0,488.353H656.086l38.783-26.375-21.008-21.1h32.32l-32.32-58.026,56.559,40.442S694.869,196.466,620.534,154.265s-29.088-15.825-29.088-15.825l-27.472-21.1s-40.4,8.792-59.791,59.784-11.312,33.409-11.312,33.409L481.56,164.556s9.7-67.871,35.551-80.8-53.327,6.464-105.038,46.863-24.24,23.645-24.24,23.645,6.464-83.436,40.4-91.516,88.879-22.624,88.879-22.624S418.537,7.806,387.834,11.038s37.167-40.4,71.1-29.088,82.415,29.088,82.415,29.088,8.08-40.4,61.407-50.1,37.167-9.7,37.167-9.7l-48.479,71.1s72.719-43.631,124.43-30.7,79.183,30.7,79.183,30.7-192.3,21.008-192.3,40.4,6.464,21.008,6.464,21.008,101.806-19.392,137.358,0,30.7,11.312,30.7,11.312L639.926,117.34l16.16,27.824s184.221,242.4,121.2,263.4c-30.125,10.042,6.437-26.984,17.776-25.717,11.809,1.322,0,40.442,0,40.442v32.138l42.015-14.554-24.24,35.562L850,461.978v26.375h605.99l27.472-26.375-38.783-21.1h38.783l-27.472-48.469,64.639,48.469s-27.472-218.146-16.16-247.234,0-39.378,0-39.378l16.16-23.645s-189.069,3.232-205.229,33.935-14.544,21.008-14.544,21.008-11.312-47.569,14.544-68.224,179.373-46.51,179.373-46.51-193.917-40.4-247.244-19.392-35.551,11.312-35.551,11.312,38.783-58.175,61.407-58.175h27.472s163.214-3.232,182.605,6.464,21.008,11.312,21.008,11.312-14.544-84.031-59.791-92.111-24.24-11.312-24.24-11.312,54.943-6.464,84.031,0S1540.024,22.35,1540.024,22.35s37.167-64.639,51.711-61.407,16.16-9.7,16.16-9.7,22.624,43.631,0,71.1-25.856,29.088-25.856,29.088,101.806-69.487,129.278-40.4,12.928,0,12.928,0l67.871,29.088s-166.445,21.008-184.221,43.631-16.16,11.312-16.16,11.312S1732.325,64.366,1759.8,108s16.16,22.624,16.16,22.624-180.989,25.856-193.917,0,0-13.281,0-13.281l-16.16,21.1s37.167,281.44,25.856,292.752,0,9.686,0,9.686l33.935-17.584-17.776,32.138,33.935-14.554-16.16,35.562,38.783-14.462,21.008,26.375H0Z" transform="translate(9 89.95)"/>
    </g>
    <rect id="Rechteck_3" data-name="Rechteck 3" width="1920" height="175" transform="translate(0 582)"/>
  </g>
</svg>
