<svg xmlns="http://www.w3.org/2000/svg" xmlns:xlink="http://www.w3.org/1999/xlink" width="1920" height="1082" viewBox="0 0 1920 1082">
  <defs>
    <linearGradient id="linear-gradient" x1="0.5" x2="0.5" y2="1" gradientUnits="objectBoundingBox">
      <stop offset="0" stop-color="#fff"/>
      <stop offset="1" stop-opacity="0.78"/>
    </linearGradient>
    <linearGradient id="linear-gradient-2" x1="0.652" y1="0.358" x2="0.597" y2="0.89" gradientUnits="objectBoundingBox">
      <stop offset="0" stop-color="red"/>
      <stop offset="0.18" stop-color="#ff4f00"/>
      <stop offset="0.339" stop-color="#fbfb00"/>
      <stop offset="0.498" stop-color="#09fc09"/>
      <stop offset="0.644" stop-color="#0efcfc"/>
      <stop offset="0.82" stop-color="#0800fc"/>
      <stop offset="1" stop-color="#70f"/>
    </linearGradient>
    <clipPath id="clip-path">
      <rect width="1920" height="569" fill="none"/>
    </clipPath>
  </defs>
  <g id="bg4" transform="translate(0 2)">
    <rect id="Rechteck_1" data-name="Rechteck 1" width="1920" height="1082" transform="translate(0 -2)"/>
    <ellipse id="Ellipse_1" data-name="Ellipse 1" cx="277" cy="256" rx="277" ry="256" transform="translate(1145 32)" fill="url(#linear-gradient)"/>
    <path id="Polygon_1" data-name="Polygon 1" d="M130,0,260,224H0Z" transform="translate(789 274)" fill="rgba(255,255,255,0.7)"/>
    <path id="Pfad_1" data-name="Pfad 1" d="M870.076,360.726,0,14.343V560.905L841.144,411.348Z" fill="url(#linear-gradient-2)"/>
    <g id="Wiederholungsraster_1" data-name="Wiederholungsraster 1" opacity="0.34" clip-path="url(#clip-path)">
      <g transform="translate(0 -145)">
        <rect id="Rechteck_2" data-name="Rechteck 2" width="1920" height="13" transform="translate(0 145)" fill="#fff"/>
      </g>
      <g transform="translate(0 -122)">
        <rect id="Rechteck_2-2" data-name="Rechteck 2" width="1920" height="13" transform="translate(0 145)" fill="#fff"/>
      </g>
      <g transform="translate(0 -99)">
        <rect id="Rechteck_2-3" data-name="Rechteck 2" width="1920" height="13" transform="translate(0 145)" fill="#fff"/>
      </g>
      <g transform="translate(0 -76)">
        <rect id="Rechteck_2-4" data-name="Rechteck 2" width="1920" height="13" transform="translate(0 145)" fill="#fff"/>
      </g>
      <g transform="translate(0 -53)">
        <rect id="Rechteck_2-5" data-name="Rechteck 2" width="1920" height="13" transform="translate(0 145)" fill="#fff"/>
      </g>
      <g transform="translate(0 -30)">
        <rect id="Rechteck_2-6" data-name="Rechteck 2" width="1920" height="13" transform="translate(0 145)" fill="#fff"/>
      </g>
      <g transform="translate(0 -7)">
        <rect id="Rechteck_2-7" data-name="Rechteck 2" width="1920" height="13" transform="translate(0 145)" fill="#fff"/>
      </g>
      <g transform="translate(0 16)">
        <rect id="Rechteck_2-8" data-name="Rechteck 2" width="1920" height="13" transform="translate(0 145)" fill="#fff"/>
      </g>
      <g transform="translate(0 39)">
        <rect id="Rechteck_2-9" data-name="Rechteck 2" width="1920" height="13" transform="translate(0 145)" fill="#fff"/>
      </g>
      <g transform="translate(0 62)">
        <rect id="Rechteck_2-10" data-name="Rechteck 2" width="1920" height="13" transform="translate(0 145)" fill="#fff"/>
      </g>
      <g transform="translate(0 85)">
        <rect id="Rechteck_2-11" data-name="Rechteck 2" width="1920" height="13" transform="translate(0 145)" fill="#fff"/>
      </g>
      <g transform="translate(0 108)">
        <rect id="Rechteck_2-12" data-name="Rechteck 2" width="1920" height="13" transform="translate(0 145)" fill="#fff"/>
      </g>
      <g transform="translate(0 131)">
        <rect id="Rechteck_2-13" data-name="Rechteck 2" width="1920" height="13" transform="translate(0 145)" fill="#fff"/>
      </g>
      <g transform="translate(0 154)">
        <rect id="Rechteck_2-14" data-name="Rechteck 2" width="1920" height="13" transform="translate(0 145)" fill="#fff"/>
      </g>
      <g transform="translate(0 177)">
        <rect id="Rechteck_2-15" data-name="Rechteck 2" width="1920" height="13" transform="translate(0 145)" fill="#fff"/>
      </g>
      <g transform="translate(0 200)">
        <rect id="Rechteck_2-16" data-name="Rechteck 2" width="1920" height="13" transform="translate(0 145)" fill="#fff"/>
      </g>
      <g transform="translate(0 223)">
        <rect id="Rechteck_2-17" data-name="Rechteck 2" width="1920" height="13" transform="translate(0 145)" fill="#fff"/>
      </g>
      <g transform="translate(0 246)">
        <rect id="Rechteck_2-18" data-name="Rechteck 2" width="1920" height="13" transform="translate(0 145)" fill="#fff"/>
      </g>
      <g transform="translate(0 269)">
        <rect id="Rechteck_2-19" data-name="Rechteck 2" width="1920" height="13" transform="translate(0 145)" fill="#fff"/>
      </g>
      <g transform="translate(0 292)">
        <rect id="Rechteck_2-20" data-name="Rechteck 2" width="1920" height="13" transform="translate(0 145)" fill="#fff"/>
      </g>
      <g transform="translate(0 315)">
        <rect id="Rechteck_2-21" data-name="Rechteck 2" width="1920" height="13" transform="translate(0 145)" fill="#fff"/>
      </g>
      <g transform="translate(0 338)">
        <rect id="Rechteck_2-22" data-name="Rechteck 2" width="1920" height="13" transform="translate(0 145)" fill="#fff"/>
      </g>
      <g transform="translate(0 361)">
        <rect id="Rechteck_2-23" data-name="Rechteck 2" width="1920" height="13" transform="translate(0 145)" fill="#fff"/>
      </g>
      <g transform="translate(0 384)">
        <rect id="Rechteck_2-24" data-name="Rechteck 2" width="1920" height="13" transform="translate(0 145)" fill="#fff"/>
      </g>
      <g transform="translate(0 407)">
        <rect id="Rechteck_2-25" data-name="Rechteck 2" width="1920" height="13" transform="translate(0 145)" fill="#fff"/>
      </g>
    </g>
  </g>
</svg>
